<?xml version="1.0" encoding="UTF-8" standalone="no"?>
<svg width="23px" height="23px" viewBox="0 0 23 23" version="1.1" xmlns="http://www.w3.org/2000/svg" xmlns:xlink="http://www.w3.org/1999/xlink">
    <!-- Generator: Sketch 46.2 (44496) - http://www.bohemiancoding.com/sketch -->
    <title>Page 1</title>
    <desc>Created with Sketch.</desc>
    <defs></defs>
    <g id="ejecutivo" stroke="none" stroke-width="1" fill="none" fill-rule="evenodd">
        <g id="004-ficha-paciente-1" transform="translate(-1182.000000, -259.000000)" fill="#0079C8">
            <path d="M1202.12512,280.264924 L1196.67203,274.812805 L1197.8128,273.673003 L1203.26492,279.125122 L1202.12512,280.264924 Z M1183.43744,266.546311 C1183.43744,263.177649 1186.17765,260.437439 1189.54631,260.437439 C1192.91497,260.437439 1195.65616,263.177649 1195.65616,266.546311 C1195.65616,269.915949 1192.91497,272.656159 1189.54631,272.656159 C1186.17765,272.656159 1183.43744,269.915949 1183.43744,266.546311 L1183.43744,266.546311 Z M1198.32123,272.147736 C1198.0392,271.867665 1197.58543,271.867665 1197.30438,272.147736 L1196.73448,272.718613 L1195.36438,271.348509 C1196.44465,270.04281 1197.0936,268.369214 1197.0936,266.546311 C1197.0936,262.385252 1193.70835,259 1189.54631,259 C1185.38623,259 1182,262.385252 1182,266.546311 C1182,270.708346 1185.38623,274.093598 1189.54631,274.093598 C1191.37019,274.093598 1193.04183,273.443676 1194.34851,272.364377 L1195.71861,273.734482 L1195.14871,274.304383 C1194.86767,274.58543 1194.86767,275.04018 1195.14871,275.321227 L1201.6167,281.789215 C1201.75722,281.929738 1201.94166,282 1202.12512,282 C1202.30858,282 1202.49302,281.929738 1202.63354,281.789215 L1204.78921,279.633544 C1205.07026,279.352497 1205.07026,278.897747 1204.78921,278.6167 L1198.32123,272.147736 Z" id="Page-1"></path>
        </g>
    </g>
</svg>